<?xml version="1.0" encoding="utf-8"?>
<svg viewBox="432.1927 205.8916 106.1913 108.6699" width="106.1913" height="108.6699" xmlns="http://www.w3.org/2000/svg">
  <defs>
    <linearGradient id="paint0_linear_16_339" x1="-12.4348" y1="91.2145" x2="228.124" y2="92.098" gradientUnits="userSpaceOnUse" gradientTransform="matrix(0.598457, 0, 0, 0.53551, 432.192507, 205.89122)">
      <stop stop-color="#AA367C"/>
      <stop offset="1" stop-color="#4A2FBD"/>
    </linearGradient>
  </defs>
  <path d="M 526.393 299.101 C 528.756 302.144 527.653 306.331 519.077 309.999 C 510.501 313.668 489.305 316.728 474.672 312.548 C 460.038 308.367 447.706 299.405 440.13 287.449 C 432.556 275.492 430.298 261.417 433.807 248.037 C 437.315 234.654 446.332 222.949 459.06 215.254 C 471.787 207.558 487.289 204.441 502.472 206.521 C 515.567 208.313 527.597 213.862 536.798 222.249 C 539.238 224.475 538.767 228.051 536.042 229.995 C 533.317 231.935 529.372 231.504 526.866 229.338 C 519.694 223.144 510.518 219.046 500.562 217.682 C 488.517 216.032 476.22 218.506 466.125 224.611 C 456.028 230.715 448.875 240 446.092 250.616 C 443.309 261.23 445.099 272.396 451.108 281.88 C 457.117 291.366 466.901 298.475 478.508 301.791 C 490.118 305.108 509.278 301.596 513.736 299.768 C 518.193 297.94 523.644 295.558 526.393 299.101 Z" fill="url(#paint0_linear_16_339)" style="" transform="matrix(1, 0, 0, 1, 2.842170943040401e-14, 0)"/>
  <path d="M 504.584 263.685 C 504.584 259.454 501.937 255.693 497.13 255.693 C 492.3 255.693 489.652 259.454 489.652 263.685 C 489.652 267.918 492.3 271.679 497.13 271.679 C 501.937 271.679 504.584 267.918 504.584 263.685 Z M 500.024 263.685 C 500.024 265.768 499.142 267.807 497.13 267.807 C 495.096 267.807 494.213 265.768 494.213 263.685 C 494.213 261.603 495.096 259.567 497.13 259.567 C 499.142 259.567 500.024 261.603 500.024 263.685 Z M 514.703 259.567 C 514.703 257.438 512.815 255.783 510.387 255.783 C 507.96 255.783 506.071 257.438 506.071 259.567 C 506.071 261.694 507.96 263.35 510.387 263.35 C 512.815 263.35 514.703 261.694 514.703 259.567 Z M 511.809 259.567 C 511.809 260.351 511.197 260.887 510.387 260.887 C 509.578 260.887 508.964 260.351 508.964 259.567 C 508.964 258.782 509.578 258.245 510.387 258.245 C 511.197 258.245 511.809 258.782 511.809 259.567 Z M 523.897 255.984 L 520.145 255.984 L 507.641 271.365 L 511.393 271.365 L 523.897 255.984 Z M 516.835 267.783 C 516.835 269.91 518.724 271.567 521.152 271.567 C 523.577 271.567 525.466 269.91 525.466 267.783 C 525.466 265.655 523.577 264 521.152 264 C 518.724 264 516.835 265.655 516.835 267.783 Z M 519.73 267.783 C 519.73 267 520.342 266.461 521.152 266.461 C 521.96 266.461 522.574 267 522.574 267.783 C 522.574 268.566 521.96 269.104 521.152 269.104 C 520.342 269.104 519.73 268.566 519.73 267.783 Z" fill="white" style="" transform="matrix(1, 0, 0, 1, 2.842170943040401e-14, 0)"/>
  <path d="M 478.792 265.186 C 479.159 264.649 479.871 264.223 480.777 264.223 C 482.028 264.223 482.936 265.029 482.936 266.126 C 482.936 267.223 482.028 268.099 480.777 268.099 C 479.479 268.099 478.767 267.314 478.694 266.62 L 474.378 266.62 C 474.451 269.732 476.954 271.77 480.851 271.77 C 484.504 271.77 487.3 269.284 487.3 265.926 C 487.3 263.149 485.117 260.843 481.906 260.843 C 480.851 260.843 479.919 261.089 479.111 261.56 L 479.43 259.59 L 486.123 259.59 L 486.123 256.095 L 476.046 256.095 L 474.795 264.426 L 478.792 265.186 Z" style="" transform="matrix(1, 0, 0, 1, 2.842170943040401e-14, 0)" fill="white"/>
</svg>