<?xml version="1.0" encoding="utf-8"?>
<svg viewBox="419.575 148 204.0002 204.0003" width="204.0002" height="204.0003" xmlns="http://www.w3.org/2000/svg">
  <defs>
    <linearGradient id="paint0_linear_16_344" x1="-12.4348" y1="91.2145" x2="228.124" y2="92.098" gradientUnits="userSpaceOnUse" gradientTransform="matrix(1, 0, 0, 1, 419.575168, 148.000001)">
      <stop stop-color="#AA367C"/>
      <stop offset="1" stop-color="#4A2FBD"/>
    </linearGradient>
  </defs>
  <path d="M 607.214 217.902 C 612.667 215.859 618.801 218.614 620.271 224.248 C 625.813 245.486 624.377 268.051 616.011 288.546 C 606.312 312.31 588.01 331.543 564.757 342.409 C 541.503 353.275 515.008 354.975 490.557 347.169 C 466.106 339.364 445.496 322.628 432.839 300.299 C 420.182 277.97 416.409 251.69 422.272 226.702 C 428.134 201.713 443.202 179.854 464.469 165.484 C 485.736 151.114 511.639 145.291 537.01 149.175 C 558.892 152.524 578.99 162.883 594.366 178.547 C 598.444 182.702 597.658 189.381 593.104 193.009 C 588.55 196.637 581.96 195.827 577.77 191.783 C 565.787 180.216 550.452 172.564 533.819 170.018 C 513.693 166.937 493.145 171.557 476.275 182.956 C 459.404 194.355 447.451 211.696 442.8 231.518 C 438.15 251.34 441.143 272.188 451.183 289.901 C 461.224 307.614 477.573 320.89 496.969 327.082 C 516.366 333.274 537.384 331.925 555.83 323.305 C 574.276 314.686 588.794 299.429 596.489 280.578 C 602.848 264.999 604.159 247.912 600.39 231.688 C 599.072 226.016 601.762 219.946 607.214 217.902 Z" fill="url(#paint0_linear_16_344)" transform="matrix(1, 0, 0, 1, 7.105427357601002e-15, 0)"/>

<path d="M 495.231 237.8 C 490.623 237.8 486.735 240.644 486.735 244.964 C 486.735 247.016 487.851 248.636 489.543 249.644 C 487.635 250.616 485.655 252.668 485.655 255.548 C 485.655 260.552 490.227 263.504 495.231 263.504 C 500.235 263.504 504.807 260.552 504.807 255.548 C 504.807 252.668 502.827 250.616 500.919 249.644 C 502.611 248.636 503.727 247.016 503.727 244.964 C 503.727 240.644 499.839 237.8 495.231 237.8 Z M 498.327 255.188 C 498.327 256.88 497.067 258.104 495.231 258.104 C 493.395 258.104 492.135 256.88 492.135 255.188 C 492.135 253.568 493.395 252.308 495.231 252.308 C 497.067 252.308 498.327 253.568 498.327 255.188 Z M 495.231 243.056 C 496.671 243.056 497.787 244.028 497.787 245.432 C 497.787 246.836 496.707 247.808 495.231 247.808 C 493.755 247.808 492.675 246.836 492.675 245.432 C 492.675 244.028 493.791 243.056 495.231 243.056 Z M 529.1 250.652 C 529.1 243.848 525.212 237.8 518.156 237.8 C 511.064 237.8 507.176 243.848 507.176 250.652 C 507.176 257.456 511.064 263.504 518.156 263.504 C 525.212 263.504 529.1 257.456 529.1 250.652 Z M 522.404 250.652 C 522.404 254 521.108 257.276 518.156 257.276 C 515.168 257.276 513.872 254 513.872 250.652 C 513.872 247.304 515.168 244.028 518.156 244.028 C 521.108 244.028 522.404 247.304 522.404 250.652 Z M 543.956 244.028 C 543.956 240.608 541.184 237.944 537.62 237.944 C 534.056 237.944 531.284 240.608 531.284 244.028 C 531.284 247.448 534.056 250.112 537.62 250.112 C 541.184 250.112 543.956 247.448 543.956 244.028 Z M 539.708 244.028 C 539.708 245.288 538.808 246.152 537.62 246.152 C 536.432 246.152 535.532 245.288 535.532 244.028 C 535.532 242.768 536.432 241.904 537.62 241.904 C 538.808 241.904 539.708 242.768 539.708 244.028 Z M 557.456 238.268 L 551.948 238.268 L 533.588 263 L 539.096 263 L 557.456 238.268 Z M 547.088 257.24 C 547.088 260.66 549.86 263.324 553.424 263.324 C 556.988 263.324 559.76 260.66 559.76 257.24 C 559.76 253.82 556.988 251.156 553.424 251.156 C 549.86 251.156 547.088 253.82 547.088 257.24 Z M 551.336 257.24 C 551.336 255.98 552.236 255.116 553.424 255.116 C 554.612 255.116 555.512 255.98 555.512 257.24 C 555.512 258.5 554.612 259.364 553.424 259.364 C 552.236 259.364 551.336 258.5 551.336 257.24 Z" fill="white"></path>
</svg>