<?xml version="1.0" standalone="no"?>
<!DOCTYPE svg PUBLIC "-//W3C//DTD SVG 20010904//EN"
 "http://www.w3.org/TR/2001/REC-SVG-20010904/DTD/svg10.dtd">
<svg version="1.0" xmlns="http://www.w3.org/2000/svg"
 width="500.000000pt" height="500.000000pt" viewBox="0 0 500.000000 500.000000"
 preserveAspectRatio="xMidYMid meet">

<g transform="translate(0.000000,500.000000) scale(0.100000,-0.100000)"
fill="#000000" stroke="none">
<path d="M0 2500 l0 -2500 2500 0 2500 0 0 2500 0 2500 -2500 0 -2500 0 0
-2500z m1570 270 l0 -1140 204 0 c196 0 205 -1 208 -20 2 -11 198 463 437
1053 239 589 450 1109 469 1155 l34 83 50 -3 50 -3 458 -1180 459 -1180 -52
-3 c-28 -2 -53 0 -55 5 -2 4 -63 163 -136 353 l-132 345 -606 3 -605 2 -144
-356 -144 -357 -80 7 c-44 3 -180 6 -302 6 l-223 0 0 1185 0 1185 55 0 55 0 0
-1140z m1146 -1171 c-3 -17 -6 -38 -6 -45 0 -11 -38 -14 -205 -14 l-205 0 0
45 0 45 211 0 212 0 -7 -31z m-1056 -294 c0 -5 -4 -4 -9 4 -7 11 -11 10 -20
-5 -14 -25 -14 -9 0 18 9 17 13 18 20 7 5 -8 9 -18 9 -24z m231 18 c11 -15 11
-16 -1 -5 -8 6 -29 12 -47 12 -31 0 -33 -2 -33 -35 0 -33 2 -35 33 -35 18 0
39 6 47 13 12 10 12 9 2 -4 -9 -12 -9 -19 1 -30 10 -12 10 -12 -2 -1 -8 6 -30
12 -48 12 -31 0 -33 -2 -33 -35 0 -33 2 -35 34 -35 25 0 39 7 50 22 9 12 16
17 16 11 0 -23 -32 -43 -71 -43 l-39 0 0 85 0 85 39 0 c25 0 43 -6 52 -17z
m157 10 l-38 -4 0 -74 0 -74 38 -4 37 -4 -42 -1 -43 -2 0 85 0 85 43 -2 42 -1
-37 -4z m235 0 c-42 -4 -43 -5 -43 -39 0 -33 1 -34 43 -36 l42 -1 -42 -4 c-41
-4 -43 -5 -43 -38 0 -33 2 -34 43 -38 l42 -4 -47 -1 -48 -2 0 85 0 85 48 -2
47 -1 -42 -4z m218 -10 c11 -15 11 -16 -1 -5 -18 15 -52 16 -68 0 -8 -8 -12
-9 -12 -1 0 26 62 30 81 6z m190 0 c11 -15 11 -16 -1 -5 -18 15 -52 16 -68 0
-8 -8 -12 -9 -12 -1 0 26 62 30 81 6z m179 -4 c0 -6 -4 -8 -9 -5 -7 5 -41 -61
-41 -79 0 -3 16 -5 36 -5 32 0 35 2 30 23 -3 12 3 4 13 -18 11 -22 19 -47 19
-55 0 -8 -4 -2 -10 13 -10 27 -13 29 -59 25 -27 -1 -49 -2 -49 -1 0 16 55 121
61 117 5 -3 9 -10 9 -15z m180 -23 c0 -6 -4 -5 -9 3 -7 11 -9 11 -14 0 -3 -8
-6 0 -6 16 0 29 0 29 14 11 8 -11 15 -25 15 -30z m130 22 c0 -16 -3 -19 -11
-11 -6 6 -8 16 -5 22 11 17 16 13 16 -11z m173 15 c-13 -2 -33 -2 -45 0 -13 2
-3 4 22 4 25 0 35 -2 23 -4z m165 0 l-38 -4 0 -74 0 -74 38 -4 37 -4 -42 -1
-43 -2 0 85 0 85 43 -2 42 -1 -37 -4z m-1394 -30 c10 -25 3 -23 -17 3 -13 18
-14 22 -3 18 8 -3 17 -13 20 -21z m1470 0 c10 -25 3 -23 -17 3 -13 18 -14 22
-3 18 8 -3 17 -13 20 -21z m-1914 -48 c0 -5 -5 -3 -10 5 -5 8 -10 20 -10 25 0
6 5 3 10 -5 5 -8 10 -19 10 -25z m-69 -2 c-12 -20 -14 -14 -5 12 4 9 9 14 11
11 3 -2 0 -13 -6 -23z m848 -2 c-6 -2 -18 4 -27 13 -15 15 -15 15 10 4 15 -7
23 -15 17 -17z m190 0 c-6 -2 -18 4 -27 13 -15 15 -15 15 10 4 15 -7 23 -15
17 -17z m430 -26 c0 -5 -6 1 -14 15 -8 14 -14 30 -14 35 0 6 6 -1 14 -15 8
-14 14 -29 14 -35z m62 28 c-12 -20 -14 -14 -5 12 4 9 9 14 11 11 3 -2 0 -13
-6 -23z m-1004 -5 c-3 -8 -6 -5 -6 6 -1 11 2 17 5 13 3 -3 4 -12 1 -19z m1470
0 c-3 -8 -6 -5 -6 6 -1 11 2 17 5 13 3 -3 4 -12 1 -19z m-254 5 c-13 -2 -33
-2 -45 0 -13 2 -3 4 22 4 25 0 35 -2 23 -4z m-848 -13 c3 -6 -1 -7 -9 -4 -18
7 -21 14 -7 14 6 0 13 -4 16 -10z m190 0 c3 -6 -1 -7 -9 -4 -18 7 -21 14 -7
14 6 0 13 -4 16 -10z m322 -52 c-2 -13 -4 -3 -4 22 0 25 2 35 4 23 2 -13 2
-33 0 -45z m170 0 c-2 -13 -4 -3 -4 22 0 25 2 35 4 23 2 -13 2 -33 0 -45z
m-1481 -15 c-3 -3 -8 6 -12 21 -5 23 -11 26 -50 26 -30 0 -46 -5 -53 -17 -6
-10 -10 -13 -11 -8 0 23 18 34 60 37 41 3 46 1 58 -26 7 -15 11 -31 8 -33z
m405 24 l-24 -22 19 27 c10 14 21 24 23 22 3 -3 -6 -15 -18 -27z m1470 0 l-24
-22 19 27 c10 14 21 24 23 22 3 -3 -6 -15 -18 -27z m-1061 14 c0 -19 -32 -41
-59 -41 -28 0 -51 16 -51 35 0 5 5 2 11 -7 14 -25 65 -23 81 2 14 22 18 25 18
11z m190 0 c0 -19 -32 -41 -59 -41 -28 0 -51 16 -51 35 0 5 5 2 11 -7 14 -25
65 -23 81 2 14 22 18 25 18 11z m400 -11 c5 8 10 11 10 5 0 -5 -5 -17 -10 -25
-9 -13 -11 -13 -20 0 -5 8 -10 20 -10 25 0 6 5 3 10 -5 9 -13 11 -13 20 0z
m-319 -23 c-10 -9 -11 -8 -5 6 3 10 9 15 12 12 3 -3 0 -11 -7 -18z m572 -4
c-13 -2 -35 -2 -50 0 -16 2 -5 4 22 4 28 0 40 -2 28 -4z"/>
<path d="M2962 3750 c-5 -14 -135 -333 -287 -710 -153 -377 -280 -691 -282
-697 -4 -10 112 -13 562 -13 536 0 567 1 562 18 -3 12 -426 1120 -537 1407 -8
19 -8 19 -18 -5z"/>
</g>
</svg>
